<?xml version="1.0" encoding="iso-8859-1"?>
<!-- Generator: Adobe Illustrator 16.0.0, SVG Export Plug-In . SVG Version: 6.00 Build 0)  -->
<!DOCTYPE svg PUBLIC "-//W3C//DTD SVG 1.1//EN" "http://www.w3.org/Graphics/SVG/1.1/DTD/svg11.dtd">
<svg xmlns="http://www.w3.org/2000/svg" xmlns:xlink="http://www.w3.org/1999/xlink" version="1.1" id="Capa_1" x="0px" y="0px" width="16px" height="16px" viewBox="0 0 36.678 36.678" style="enable-background:new 0 0 36.678 36.678;" xml:space="preserve">
<g>
	<path d="M29.696,20.076c0.088,0.16,0.08,0.354-0.021,0.51L19.395,36.449c-0.091,0.139-0.241,0.224-0.407,0.229   c-0.004,0-0.008,0-0.015,0c-0.157,0-0.31-0.076-0.403-0.205L6.998,20.609c-0.11-0.15-0.127-0.354-0.041-0.521   c0.085-0.168,0.257-0.272,0.444-0.272h21.855C29.443,19.814,29.609,19.914,29.696,20.076z M7.401,16.865h21.855   c0.008,0,0.017,0,0.021,0c0.275,0,0.5-0.225,0.5-0.5c0-0.156-0.07-0.295-0.184-0.388L18.086,0.205   C17.989,0.072,17.821,0.002,17.668,0c-0.165,0.005-0.315,0.09-0.406,0.229L6.982,16.094c-0.101,0.152-0.105,0.35-0.021,0.512   C7.05,16.765,7.218,16.865,7.401,16.865z" fill="#000000"/>
</g>
<g>
</g>
<g>
</g>
<g>
</g>
<g>
</g>
<g>
</g>
<g>
</g>
<g>
</g>
<g>
</g>
<g>
</g>
<g>
</g>
<g>
</g>
<g>
</g>
<g>
</g>
<g>
</g>
<g>
</g>
</svg>
