<?xml version="1.0" encoding="utf-8"?>
<!-- Generator: Adobe Illustrator 16.0.4, SVG Export Plug-In . SVG Version: 6.00 Build 0)  -->
<!DOCTYPE svg PUBLIC "-//W3C//DTD SVG 1.1//EN" "http://www.w3.org/Graphics/SVG/1.1/DTD/svg11.dtd">
<svg version="1.1" id="Capa_1" xmlns="http://www.w3.org/2000/svg" xmlns:xlink="http://www.w3.org/1999/xlink" x="0px" y="0px"
	 width="611.997px" height="611.998px" viewBox="0 0 611.997 611.998" enable-background="new 0 0 611.997 611.998"
	 xml:space="preserve">
<g>
	<g>
		<path d="M547.384,495.159L410.307,357.364c1.235-1.867,2.162-4.965,3.081-9.003c14.478-24.519,23.435-51.208,26.187-79.453
			c0.631-6.515,0.921-13.342,0.921-19.863c0-21.412-3.549-42.876-10.777-63.931c-9.402-27.365-24.432-51.73-45.282-72.618
			c-37.062-37.15-85.94-56.49-136.145-56.49c-49.594,0-98.694,19.432-135.842,56.49c-24.767,24.702-41.168,54.026-49.902,87.204
			c-8.825,33.548-8.622,66.415,0,99.625c8.628,33.213,25.042,62.291,49.902,87.212c37.056,37.151,86.248,56.483,135.842,56.483
			c38.501,0,73.5-11.216,105.956-31.654l4.929-3.104l137.689,138.416c5.242,5.27,10.782,8.376,16.019,8.999
			c1.229,0.31,2.155,0.368,3.076,0.31c3.706-0.244,7.103-1.204,9.856-2.794c3.719-2.14,7.701-5.277,12.013-9.62l6.163-6.204
			c4.311-4.351,7.426-8.362,9.55-12.104c1.57-2.772,2.464-6.521,2.464-11.175v-2.485
			C556.005,506.322,552.78,500.583,547.384,495.159z M401.068,290.639c-7.229,27.273-20.943,51.208-41.274,71.693
			c-29.571,29.788-69.309,46.55-111.503,46.55c-41.589,0-81.063-17.033-111.816-46.55c-60.424-58.007-60.174-166.445,0-225.007
			c30.391-29.583,69.925-46.863,111.816-46.863c44.047,0,80.796,15.731,111.503,46.863c20.114,20.385,34.189,44.069,41.274,71.38
			C408.151,236.016,408.315,263.287,401.068,290.639z"/>
		<polygon points="267.079,168.045 229.806,168.045 229.806,230.739 167.583,230.739 167.583,268.292 229.806,268.292 
			229.806,331.291 267.079,331.291 267.079,268.292 329.605,268.292 329.605,230.739 267.079,230.739 		"/>
	</g>
</g>
</svg>
