<?xml version="1.0" encoding="utf-8"?>
<!-- Generator: Adobe Illustrator 16.0.4, SVG Export Plug-In . SVG Version: 6.00 Build 0)  -->
<!DOCTYPE svg PUBLIC "-//W3C//DTD SVG 1.1//EN" "http://www.w3.org/Graphics/SVG/1.1/DTD/svg11.dtd">
<svg version="1.1" id="Capa_1" xmlns="http://www.w3.org/2000/svg" xmlns:xlink="http://www.w3.org/1999/xlink" x="0px" y="0px"
	 width="612.012px" height="612.012px" viewBox="0 0 612.012 612.012" enable-background="new 0 0 612.012 612.012"
	 xml:space="preserve">
<g>
	<g>
		<path d="M547.368,495.43L410.298,357.493c1.235-1.868,2.156-4.97,3.081-9.013c14.478-24.542,23.428-51.259,26.181-79.532
			c0.637-6.522,0.927-13.355,0.927-19.884c0-21.434-3.549-42.921-10.783-63.997c-9.403-27.393-24.589-51.624-45.282-72.7
			c-73.866-75.231-198.244-75.065-271.973,0c-24.524,24.967-41.168,54.083-49.901,87.3c-8.825,33.583-8.621,66.482,0,99.727
			c8.622,33.244,25.042,62.354,49.901,87.299c37.054,37.188,85.628,56.542,135.838,56.542c38.5,0,73.504-11.228,105.959-31.688
			l4.929-3.108L496.86,546.999c5.401,5.437,10.77,9.008,16.02,9.008h2.774c4.002,0,7.443-0.835,10.164-2.484
			c3.443-2.081,7.458-5.21,12.013-9.631c3.456-3.348,5.236-5.282,5.545-6.211c8.321-8.39,12.63-16.469,12.63-24.237
			C555.994,507.234,553.229,501.322,547.368,495.43z M401.06,290.7c-7.229,27.298-20.95,51.258-41.273,71.764
			c-29.571,29.819-69.307,46.601-111.506,46.601c-43.121,0-80.017-15.927-111.808-46.601c-60.303-58.184-60.159-166.601,0-225.235
			c31.633-30.839,68.379-46.912,111.808-46.912c44.046,0,80.792,15.748,111.506,46.912c20.113,20.413,34.188,44.113,41.273,71.454
			C408.143,236.014,408.307,263.313,401.06,290.7z"/>
		<rect x="167.581" y="230.732" width="162.019" height="37.592"/>
	</g>
</g>
</svg>
